<svg width="24" height="24" viewBox="0 0 24 24" fill="none" xmlns="http://www.w3.org/2000/svg">
<path d="M15.3787 0C16.0417 0 16.6776 0.263392 17.1464 0.732233L23.2678 6.85355C23.7366 7.32239 24 7.95828 24 8.62132V15.3787C24 16.0417 23.7366 16.6776 23.2678 17.1464L17.1464 23.2678C16.6776 23.7366 16.0417 24 15.3787 24H8.62132C7.95828 24 7.32239 23.7366 6.85355 23.2678L0.732233 17.1464C0.263392 16.6776 0 16.0417 0 15.3787V8.62132C0 7.95828 0.263392 7.32239 0.732233 6.85355L6.85355 0.732233C7.32239 0.263392 7.95828 0 8.62132 0H15.3787ZM15.3787 2H8.62132C8.48871 2 8.36154 2.05268 8.26777 2.14645L2.14645 8.26777C2.05268 8.36154 2 8.48871 2 8.62132V15.3787C2 15.5113 2.05268 15.6385 2.14645 15.7322L8.26777 21.8536C8.36154 21.9473 8.48871 22 8.62132 22H15.3787C15.5113 22 15.6385 21.9473 15.7322 21.8536L21.8536 15.7322C21.9473 15.6385 22 15.5113 22 15.3787V8.62132C22 8.48871 21.9473 8.36154 21.8536 8.26777L15.7322 2.14645C15.6385 2.05268 15.5113 2 15.3787 2ZM12 14.8001L12.1228 14.8063C12.7278 14.8677 13.2 15.3787 13.2 16C13.2 16.6627 12.6628 17.1999 12.0001 17.1999L11.8773 17.1937C11.2723 17.1323 10.8001 16.6213 10.8001 16C10.8001 15.3373 11.3373 14.8001 12 14.8001ZM12 6C12.5523 6 13 6.44772 13 7V12C13 12.5523 12.5523 13 12 13C11.4477 13 11 12.5523 11 12V7C11 6.44772 11.4477 6 12 6Z" fill="#E64646"/>
</svg>
