<svg width="34" height="29" viewBox="0 0 34 29" fill="none" xmlns="http://www.w3.org/2000/svg">
<path fill-rule="evenodd" clip-rule="evenodd" d="M4.02681 3.82681C5.45202 2.40203 7.38476 1.60164 9.40001 1.60164C11.4153 1.60164 13.348 2.40203 14.7732 3.82681L17 6.05171L19.2268 3.82681C19.9279 3.10093 20.7665 2.52195 21.6937 2.12364C22.621 1.72533 23.6182 1.51568 24.6274 1.50691C25.6365 1.49814 26.6372 1.69043 27.5713 2.07257C28.5053 2.4547 29.3538 3.01903 30.0674 3.73261C30.781 4.44619 31.3453 5.29475 31.7275 6.22876C32.1096 7.16277 32.3019 8.16354 32.2931 9.17266C32.2843 10.1818 32.0747 11.1791 31.6764 12.1063C31.2781 13.0335 30.6991 13.8721 29.9732 14.5732L17 27.5483L4.02681 14.5732C2.60203 13.148 1.80164 11.2153 1.80164 9.20001C1.80164 7.18476 2.60203 5.25202 4.02681 3.82681Z" fill="#DFDFE6" stroke="#DFDFE6" stroke-width="2" stroke-linejoin="round"/>
</svg>
