<svg width="61" height="61" viewBox="0 0 61 61" fill="none" xmlns="http://www.w3.org/2000/svg">
<path d="M30.2617 0.5C46.6983 0.50021 60.0225 13.8251 60.0225 30.2617C60.0223 46.6981 46.6981 60.0223 30.2617 60.0225C13.8251 60.0225 0.50021 46.6983 0.5 30.2617C0.5 13.825 13.825 0.5 30.2617 0.5Z" fill="white" stroke="black"/>
<path d="M30.3565 15C38.8377 15 45.713 21.8753 45.713 30.3565C45.713 38.8377 38.8377 45.713 30.3565 45.713C21.8753 45.713 15 38.8377 15 30.3565C15 21.8753 21.8753 15 30.3565 15ZM30.3565 38.6746C27.6871 38.6746 25.1353 39.4194 22.9383 40.7849C25.0306 42.2764 27.5911 43.1536 30.3565 43.1536C33.1213 43.1536 35.6814 42.2768 37.7737 40.7861C35.577 39.4192 33.0256 38.6746 30.3565 38.6746ZM30.3565 17.5594C23.2889 17.5594 17.5594 23.2889 17.5594 30.3565C17.5594 33.7038 18.8446 36.7509 20.9484 39.0314C23.6836 37.1494 26.9409 36.1152 30.3565 36.1152C33.7724 36.1152 37.0301 37.1496 39.7658 39.0296C41.8689 36.7498 43.1536 33.7032 43.1536 30.3565C43.1536 23.2889 37.4241 17.5594 30.3565 17.5594ZM30.3565 22.0384C33.7147 22.0384 36.4351 24.7588 36.4351 28.117C36.4351 31.4752 33.7147 34.1956 30.3565 34.1956C26.9983 34.1956 24.2779 31.4752 24.2779 28.117C24.2779 24.7588 26.9983 22.0384 30.3565 22.0384ZM30.3565 24.5978C28.4119 24.5978 26.8373 26.1724 26.8373 28.117C26.8373 30.0616 28.4119 31.6362 30.3565 31.6362C32.3011 31.6362 33.8757 30.0616 33.8757 28.117C33.8757 26.1724 32.3011 24.5978 30.3565 24.5978Z" fill="black"/>
</svg>
