<svg width="61" height="61" viewBox="0 0 61 61" fill="none" xmlns="http://www.w3.org/2000/svg">
<path d="M30.2617 0.5C46.6983 0.50021 60.0225 13.8251 60.0225 30.2617C60.0223 46.6981 46.6981 60.0223 30.2617 60.0225C13.8251 60.0225 0.50021 46.6983 0.5 30.2617C0.5 13.825 13.825 0.5 30.2617 0.5Z" fill="white" stroke="black"/>
<path d="M30.25 14C39.2038 14 46.5 20.565 46.5 28.625C46.5 34.0038 42.1288 38.375 36.75 38.375H33.8738C33.4188 38.375 33.0613 38.7325 33.0613 39.1875C33.0613 39.3825 33.1425 39.5612 33.2725 39.7237C33.9388 40.4875 34.3125 41.4462 34.3125 42.4375C34.3125 44.68 32.4925 46.5 30.25 46.5C21.2963 46.5 14 39.2038 14 30.25C14 21.2963 21.2963 14 30.25 14ZM30.243 16.7811C22.8221 16.7811 16.7811 22.8221 16.7811 30.243C16.7811 37.6639 22.8221 43.705 30.243 43.705C30.7142 43.705 31.0844 43.3348 31.0844 42.8636C31.0844 42.5944 30.9498 42.3925 30.8488 42.2747C30.1589 41.5006 29.7887 40.5078 29.7887 39.4981C29.7887 37.1759 31.6734 35.2913 33.9956 35.2913H36.974C40.6929 35.2913 43.705 32.2792 43.705 28.5603C43.705 22.0649 37.6639 16.7811 30.243 16.7811ZM21.3125 27C22.6587 27 23.75 28.0913 23.75 29.4375C23.75 30.7837 22.6587 31.875 21.3125 31.875C19.9663 31.875 18.875 30.7837 18.875 29.4375C18.875 28.0913 19.9663 27 21.3125 27ZM39.1875 27C40.5337 27 41.625 28.0913 41.625 29.4375C41.625 30.7837 40.5337 31.875 39.1875 31.875C37.8413 31.875 36.75 30.7837 36.75 29.4375C36.75 28.0913 37.8413 27 39.1875 27ZM26.1875 20.5C27.5337 20.5 28.625 21.5913 28.625 22.9375C28.625 24.2837 27.5337 25.375 26.1875 25.375C24.8413 25.375 23.75 24.2837 23.75 22.9375C23.75 21.5913 24.8413 20.5 26.1875 20.5ZM34.3125 20.5C35.6587 20.5 36.75 21.5913 36.75 22.9375C36.75 24.2837 35.6587 25.375 34.3125 25.375C32.9663 25.375 31.875 24.2837 31.875 22.9375C31.875 21.5913 32.9663 20.5 34.3125 20.5Z" fill="#090909"/>
</svg>
