<svg width="38" height="38" viewBox="0 0 38 38" fill="none" xmlns="http://www.w3.org/2000/svg">
<path fill-rule="evenodd" clip-rule="evenodd" d="M6.02681 9.82678C7.45202 8.402 9.38476 7.6016 11.4 7.6016C13.4153 7.6016 15.348 8.402 16.7732 9.82678L19 12.0517L21.2268 9.82678C21.9279 9.1009 22.7665 8.52192 23.6937 8.12361C24.621 7.7253 25.6182 7.51565 26.6274 7.50688C27.6365 7.49811 28.6372 7.6904 29.5713 8.07254C30.5053 8.45467 31.3538 9.019 32.0674 9.73258C32.781 10.4462 33.3453 11.2947 33.7275 12.2287C34.1096 13.1627 34.3019 14.1635 34.2931 15.1726C34.2843 16.1818 34.0747 17.179 33.6764 18.1063C33.2781 19.0335 32.6991 19.8721 31.9732 20.5732L19 33.5483L6.02681 20.5732C4.60203 19.148 3.80164 17.2152 3.80164 15.2C3.80164 13.1847 4.60203 11.252 6.02681 9.82678V9.82678Z" stroke="white" stroke-width="3" stroke-linejoin="round"/>
</svg>
