<svg width="61" height="61" viewBox="0 0 61 61" fill="none" xmlns="http://www.w3.org/2000/svg">
<path d="M30.2617 0.5C46.6983 0.50021 60.0225 13.8251 60.0225 30.2617C60.0223 46.6981 46.6981 60.0223 30.2617 60.0225C13.8251 60.0225 0.50021 46.6983 0.5 30.2617C0.5 13.825 13.825 0.5 30.2617 0.5Z" fill="white" stroke="black"/>
<path d="M31.4615 13.6121L43.5899 25.134C44.399 25.9027 44.8571 26.9698 44.8571 28.0858V39.8134C44.8571 41.6872 43.3381 43.2063 41.4643 43.2063H33.3214C32.5719 43.2063 31.9643 42.5986 31.9643 41.8491V34.3846C31.9643 33.2603 31.0529 32.3489 29.9286 32.3489C28.8043 32.3489 27.8929 33.2603 27.8929 34.3846V41.8491C27.8929 42.5986 27.2852 43.2063 26.5357 43.2063H18.3929C16.519 43.2063 15 41.6872 15 39.8134V28.0858C15 26.9698 15.4581 25.9027 16.2672 25.134L28.3956 13.6121C29.2547 12.796 30.6025 12.796 31.4615 13.6121ZM29.9286 15.8996L18.1367 27.1019C17.867 27.3581 17.7143 27.7138 17.7143 28.0858V39.8134C17.7143 40.1882 18.0181 40.492 18.3929 40.492H25.1786V34.3846C25.1786 31.7613 27.3052 29.6346 29.9286 29.6346C32.5519 29.6346 34.6786 31.7613 34.6786 34.3846V40.492H41.4643C41.839 40.492 42.1429 40.1882 42.1429 39.8134V28.0858C42.1429 27.7138 41.9902 27.3581 41.7204 27.1019L29.9286 15.8996Z" fill="#090909"/>
</svg>
